# xmcd
#
# Track frame offsets:
# 150
# 21375
# 41725
# 62210
# 85480
# 104175
# 124340
# 142650
# 161903
# 179470
# 196448
# 223898
#
# Disc length: 3122 seconds
#
#
# Revision: 3
# Processed by: cddbd v1.4PL0 Copyright (c) Steve Scherf et al.
# Submitted via: FreeRIP 2.51 
#
DISCID=ab0c300c,c00c300c
DTITLE=Totta Näslund - Totta
DYEAR=1995
DGENRE=Blues
TTITLE0=Det blåser en vind
TTITLE1=Manuel, augusti '94
TTITLE2=En clown i mina kläder
TTITLE3=Bara månen är full
TTITLE4=Mycket vill ha mer
TTITLE5=Alltid inom mig
TTITLE6=På väg igen
TTITLE7=Bibelord i hyresrum
TTITLE8=Allt är bra
TTITLE9=Louise
TTITLE10=Om våren
TTITLE11=När du kommer hem till mig
EXTD=Year:1995
EXTT0=
EXTT1=
EXTT2=
EXTT3=
EXTT4=
EXTT5=
EXTT6=
EXTT7=
EXTT8=
EXTT9=
EXTT10=
EXTT11=
PLAYORDER=
